<svg xmlns="http://www.w3.org/2000/svg" viewBox="0 0 50 50"><defs><style>.a{fill:#252525;}</style></defs><title>ORIGnav</title><path class="a" d="M30.11,11.32C16.37,8.92,3.72,20.23,0,36.55,5.41,22.7,15.78,14.16,30.11,11.32Z"/><path class="a" d="M38.78,15.47a5.59,5.59,0,0,0,.68.35,2.05,2.05,0,0,0-.48-.54c-8.67-7.24-23,1.57-28.05,6.43C18.6,16.23,29.65,10.62,38.78,15.47Z"/><path class="a" d="M44.2,23.91a48.89,48.89,0,0,1-4.64,4.81,43.8,43.8,0,0,1-9,6.33c-3.27,1.79-5.48,2.49-10.72,3.63A21.36,21.36,0,0,0,31,37.53h0a30.82,30.82,0,0,0,10.87-8.19,37.48,37.48,0,0,0,4-5.43A43,43,0,0,0,50,13.38,38.44,38.44,0,0,1,44.2,23.91Z"/><path class="a" d="M15.15,19.6C8,26.09,4.86,34.16,18.9,35.18,8.5,33.65,9.32,27.18,15.15,19.6Z"/><path class="a" d="M22.14,17.74c-5.35,2.36-8.23,7.56-6.44,11.62s7.58,5.44,12.92,3.08a13.73,13.73,0,0,0,2.62-1.52c.29-.22.59-.54.86-.79a10.41,10.41,0,0,0,3.47-6.22,6.75,6.75,0,0,0,0-1.25,5.18,5.18,0,0,0-1.31-3.22l-.12-.12a8.44,8.44,0,0,0-6.24-2.72h-.36A13.23,13.23,0,0,0,22.14,17.74Zm7.85,0a6.21,6.21,0,0,1,2.6,1.87,5.27,5.27,0,0,1,.71,1.16,5.56,5.56,0,0,1,.35,3.25,9,9,0,0,1-2.8,4.73l-.29.26,0,0a12,12,0,0,1-2.9,1.8,11.31,11.31,0,0,1-5.81,1,6.49,6.49,0,0,1-5.45-3.55c-1.54-3.5,1-8,5.67-10.07A10.5,10.5,0,0,1,30,17.77Z"/><circle class="a" cx="27.72" cy="21.17" r="1.27"/><circle class="a" cx="29.04" cy="23.36" r="0.6"/><path class="a" d="M30.4,34.32l.3-.16h0a22.62,22.62,0,0,0,4.44-3.24,18.8,18.8,0,0,0,4.92-7c3.23-7.56-4.63-9.22-10.61-9.31,4.94.13,11.57,2.12,9.11,9.32a18.4,18.4,0,0,1-4.12,6.6,19.18,19.18,0,0,1-3.63,2.7c-6.45,3.15-14.21,4.6-20.32.87,5.16,5.41,13.46,3.32,19.05.66Z"/></svg>